<svg width="179" height="25" viewBox="0 0 179 25" fill="none" xmlns="http://www.w3.org/2000/svg">
<path d="M67.0794 24.6275C67.0116 24.6275 66.9777 24.5597 66.9777 24.4242C66.9777 24.2887 67.0116 24.221 67.0794 24.221C67.9601 24.221 68.536 24.0742 68.807 23.7806C69.078 23.4644 69.2135 22.8321 69.2135 21.8836V4.37004C69.2135 3.57961 69.1345 3.00373 68.9764 2.6424C68.8183 2.25848 68.536 2.06652 68.1295 2.06652C67.7908 2.06652 67.2713 2.2246 66.5712 2.54077C66.4809 2.58594 66.4019 2.55206 66.3341 2.43914C66.2889 2.30364 66.3115 2.21331 66.4019 2.16814L70.704 0.0678711C70.7492 0.0678711 70.7718 0.0678711 70.7718 0.0678711C70.7718 0.0678711 70.7831 0.0678711 70.8057 0.0678711C70.8734 0.0678711 70.9412 0.101746 71.0089 0.169496C71.0767 0.214664 71.1105 0.271123 71.1105 0.338874V21.8836C71.1105 22.8321 71.246 23.4644 71.517 23.7806C71.788 24.0742 72.3639 24.221 73.2447 24.221C73.3124 24.221 73.3463 24.2887 73.3463 24.4242C73.3463 24.5597 73.3124 24.6275 73.2447 24.6275C72.8382 24.6275 72.3752 24.6162 71.8558 24.5936C71.3364 24.571 70.7718 24.5597 70.162 24.5597C69.5748 24.5597 69.0103 24.571 68.4683 24.5936C67.9263 24.6162 67.4633 24.6275 67.0794 24.6275ZM76.1918 24.6275C76.1241 24.6275 76.0902 24.5597 76.0902 24.4242C76.0902 24.2887 76.1241 24.221 76.1918 24.221C77.0726 24.221 77.6485 24.0742 77.9195 23.7806C78.1905 23.4644 78.326 22.8321 78.326 21.8836V16.4974C78.326 13.8551 77.2871 12.534 75.2095 12.534C74.3739 12.534 73.527 12.805 72.6688 13.347C71.8106 13.8664 71.0767 14.5778 70.4669 15.4811L70.3314 15.0746C71.3251 13.7196 72.3075 12.7372 73.2786 12.1275C74.2722 11.5177 75.2885 11.2129 76.3273 11.2129C77.5694 11.2129 78.5292 11.5629 79.2067 12.263C79.8842 12.9405 80.223 13.9568 80.223 15.3118V21.8836C80.223 22.8321 80.3585 23.4644 80.6295 23.7806C80.9005 24.0742 81.4764 24.221 82.3571 24.221C82.4249 24.221 82.4588 24.2887 82.4588 24.4242C82.4588 24.5597 82.4249 24.6275 82.3571 24.6275C81.9506 24.6275 81.4877 24.6162 80.9683 24.5936C80.4488 24.571 79.8842 24.5597 79.2745 24.5597C78.6873 24.5597 78.1227 24.571 77.5807 24.5936C77.0387 24.6162 76.5758 24.6275 76.1918 24.6275Z" fill="#EDEBDD"/>
<path d="M58.1394 13.6179C58.1394 14.2051 58.2862 14.7019 58.5798 15.1084C58.896 15.5149 59.2799 15.865 59.7316 16.1586C60.2058 16.4296 60.7027 16.7006 61.2221 16.9716C61.8093 17.2652 62.3626 17.5813 62.882 17.9201C63.4014 18.2363 63.8305 18.6315 64.1693 19.1057C64.508 19.5574 64.6774 20.1559 64.6774 20.9011C64.6774 21.6238 64.4967 22.3013 64.1354 22.9336C63.774 23.5434 63.232 24.0402 62.5094 24.4242C61.8093 24.8081 60.9398 25 59.901 25C59.3364 25 58.7944 24.921 58.2749 24.7629C57.7555 24.6274 57.2135 24.3677 56.6489 23.9838C56.6038 23.9386 56.5586 23.8821 56.5134 23.8144C56.4683 23.7466 56.4457 23.6676 56.4457 23.5773L56.3779 20.935C56.3779 20.8672 56.4344 20.8334 56.5473 20.8334C56.6828 20.8108 56.7618 20.8334 56.7844 20.9011C57.0554 21.669 57.3942 22.3126 57.8007 22.832C58.2072 23.3289 58.6702 23.7128 59.1896 23.9838C59.709 24.2322 60.2623 24.3564 60.8495 24.3564C61.5721 24.3564 62.1254 24.1757 62.5094 23.8144C62.9159 23.4531 63.1078 22.9223 63.0852 22.2223C63.0627 21.5673 62.8933 21.0366 62.5771 20.6301C62.2609 20.2236 61.8657 19.8849 61.3915 19.6139C60.9398 19.3203 60.4656 19.0493 59.9687 18.8008C59.4041 18.5298 58.8621 18.2476 58.3427 17.954C57.8459 17.6378 57.4281 17.2426 57.0893 16.7683C56.7731 16.2941 56.6151 15.673 56.6151 14.9052C56.6151 14.0244 56.8409 13.313 57.2926 12.771C57.7442 12.2064 58.3201 11.7999 59.0202 11.5515C59.7203 11.2805 60.4543 11.145 61.2221 11.145C61.6512 11.145 62.069 11.1789 62.4755 11.2466C62.882 11.3144 63.2885 11.4499 63.695 11.6532C63.8983 11.7209 63.9999 11.8451 63.9999 12.0258C63.9999 12.3871 63.9886 12.771 63.966 13.1775C63.9434 13.5615 63.9321 14.0018 63.9321 14.4987C63.9321 14.5438 63.8644 14.5664 63.7289 14.5664C63.5934 14.5664 63.5256 14.5438 63.5256 14.4987C63.5256 13.9793 63.345 13.5163 62.9836 13.1098C62.6223 12.7033 62.1706 12.3871 61.6286 12.1613C61.0866 11.9129 60.5446 11.7887 60.0026 11.7887C59.4606 11.7887 59.0089 11.9354 58.6476 12.229C58.3088 12.5226 58.1394 12.9856 58.1394 13.6179Z" fill="#EDEBDD"/>
<path d="M47.2844 24.6272C47.2392 24.6272 47.2166 24.5595 47.2166 24.424C47.2166 24.2885 47.2392 24.2207 47.2844 24.2207C48.1651 24.2207 48.741 24.0739 49.012 23.7803C49.3056 23.4641 49.4524 22.8318 49.4524 21.8833V15.5486C49.4524 14.7582 49.3734 14.1823 49.2153 13.821C49.0572 13.437 48.7636 13.2451 48.3345 13.2451C48.1538 13.2451 47.9393 13.2903 47.6909 13.3806C47.4425 13.4483 47.1489 13.5613 46.8101 13.7193C46.7198 13.7419 46.6408 13.6968 46.573 13.5838C46.5278 13.4483 46.5391 13.358 46.6069 13.3128L51.0107 11.2803C51.0784 11.2577 51.1236 11.2464 51.1462 11.2464C51.1913 11.2464 51.2478 11.2803 51.3155 11.3481C51.3833 11.3932 51.4172 11.4497 51.4172 11.5174C51.4172 11.6981 51.4059 12.1385 51.3833 12.8386C51.3607 13.5387 51.3494 14.4307 51.3494 15.5147V21.8833C51.3494 22.8318 51.4736 23.4641 51.722 23.7803C51.9931 24.0739 52.5802 24.2207 53.4836 24.2207C53.5513 24.2207 53.5852 24.2885 53.5852 24.424C53.5852 24.5595 53.5513 24.6272 53.4836 24.6272C53.0771 24.6272 52.6028 24.6159 52.0608 24.5933C51.5414 24.5707 50.9881 24.5595 50.4009 24.5595C49.8137 24.5595 49.2492 24.5707 48.7071 24.5933C48.1877 24.6159 47.7135 24.6272 47.2844 24.6272ZM50.1299 7.28303C49.6782 7.28303 49.3169 7.15882 49.0459 6.9104C48.7749 6.66198 48.6394 6.31193 48.6394 5.86026C48.6394 5.40859 48.7749 5.05855 49.0459 4.81013C49.3169 4.56171 49.6782 4.4375 50.1299 4.4375C50.5816 4.4375 50.9316 4.56171 51.18 4.81013C51.4285 5.05855 51.5527 5.40859 51.5527 5.86026C51.5527 6.80877 51.0784 7.28303 50.1299 7.28303Z" fill="#EDEBDD"/>
<path d="M37.9941 15.4471L37.8586 15.0745C38.6942 14.0582 39.383 13.2791 39.925 12.7371C40.467 12.1725 40.93 11.7886 41.3139 11.5853C41.7204 11.3595 42.1043 11.2466 42.4657 11.2466C42.9399 11.2466 43.4029 11.3821 43.8546 11.6531C44.3288 11.9241 44.5659 12.2516 44.5659 12.6355C44.5659 12.9291 44.4643 13.1775 44.2611 13.3807C44.0804 13.584 43.8094 13.6856 43.4481 13.6856C43.1545 13.6856 42.9061 13.5953 42.7028 13.4146C42.4995 13.2339 42.285 13.0646 42.0592 12.9065C41.8333 12.7484 41.5397 12.6693 41.1784 12.6693C40.9752 12.6693 40.7606 12.7258 40.5348 12.8387C40.3089 12.9516 40.0041 13.2114 39.6201 13.6179C39.2362 14.0018 38.6942 14.6115 37.9941 15.4471ZM34.6743 24.6273C34.6066 24.6273 34.5727 24.5596 34.5727 24.4241C34.5727 24.2886 34.6066 24.2208 34.6743 24.2208C35.5551 24.2208 36.1197 24.074 36.3681 23.7805C36.6391 23.4643 36.7746 22.8319 36.7746 21.8834V15.1761C36.7746 14.4309 36.6843 13.8889 36.5036 13.5501C36.3455 13.1888 36.0407 13.0081 35.589 13.0081C35.3631 13.0081 35.0921 13.0533 34.776 13.1436C34.4824 13.2339 34.1436 13.3581 33.7597 13.5162C33.6694 13.5388 33.5903 13.4936 33.5226 13.3807C33.4774 13.2678 33.5 13.1888 33.5903 13.1436L37.5199 11.2805C37.5876 11.2579 37.6554 11.2466 37.7231 11.2466C37.8812 11.2466 38.0845 11.4837 38.3329 11.958C38.5813 12.4322 38.7055 13.121 38.7055 14.0244V21.8834C38.7055 22.5158 38.7846 23.0126 38.9426 23.374C39.1007 23.7127 39.4169 23.9385 39.8911 24.0515C40.3654 24.1644 41.0655 24.2208 41.9914 24.2208C42.0818 24.2208 42.1269 24.2886 42.1269 24.4241C42.1269 24.5596 42.0818 24.6273 41.9914 24.6273C41.4494 24.6273 40.8058 24.616 40.0605 24.5935C39.3379 24.5709 38.57 24.5596 37.757 24.5596C37.1698 24.5596 36.6052 24.5709 36.0632 24.5935C35.5212 24.616 35.0583 24.6273 34.6743 24.6273Z" fill="#EDEBDD"/>
<path d="M25.6828 24.6272C25.6377 24.6272 25.6151 24.5595 25.6151 24.424C25.6151 24.2885 25.6377 24.2207 25.6828 24.2207C26.5636 24.2207 27.1395 24.0739 27.4105 23.7803C27.704 23.4641 27.8508 22.8318 27.8508 21.8833V15.5486C27.8508 14.7582 27.7718 14.1823 27.6137 13.821C27.4556 13.437 27.162 13.2451 26.733 13.2451C26.5523 13.2451 26.3377 13.2903 26.0893 13.3806C25.8409 13.4483 25.5473 13.5613 25.2086 13.7193C25.1182 13.7419 25.0392 13.6968 24.9714 13.5838C24.9263 13.4483 24.9376 13.358 25.0053 13.3128L29.4091 11.2803C29.4769 11.2577 29.522 11.2464 29.5446 11.2464C29.5898 11.2464 29.6462 11.2803 29.714 11.3481C29.7817 11.3932 29.8156 11.4497 29.8156 11.5174C29.8156 11.6981 29.8043 12.1385 29.7817 12.8386C29.7592 13.5387 29.7479 14.4307 29.7479 15.5147V21.8833C29.7479 22.8318 29.8721 23.4641 30.1205 23.7803C30.3915 24.0739 30.9787 24.2207 31.882 24.2207C31.9498 24.2207 31.9836 24.2885 31.9836 24.424C31.9836 24.5595 31.9498 24.6272 31.882 24.6272C31.4755 24.6272 31.0012 24.6159 30.4592 24.5933C29.9398 24.5707 29.3865 24.5595 28.7993 24.5595C28.2122 24.5595 27.6476 24.5707 27.1056 24.5933C26.5862 24.6159 26.1119 24.6272 25.6828 24.6272ZM28.5283 7.28303C28.0767 7.28303 27.7153 7.15882 27.4443 6.9104C27.1733 6.66198 27.0378 6.31193 27.0378 5.86026C27.0378 5.40859 27.1733 5.05855 27.4443 4.81013C27.7153 4.56171 28.0767 4.4375 28.5283 4.4375C28.98 4.4375 29.3301 4.56171 29.5785 4.81013C29.8269 5.05855 29.9511 5.40859 29.9511 5.86026C29.9511 6.80877 29.4769 7.28303 28.5283 7.28303Z" fill="#EDEBDD"/>
<path d="M6.67344 15.3117L7.0122 14.6342H15.9892L16.2263 15.3117H6.67344ZM23.7805 24.2209C23.8708 24.2209 23.916 24.2887 23.916 24.4242C23.916 24.5597 23.8708 24.6274 23.7805 24.6274C23.1256 24.6274 22.4594 24.6048 21.7818 24.5597C21.1043 24.5145 20.4494 24.4919 19.8171 24.4919C19.117 24.4919 18.5072 24.5145 17.9878 24.5597C17.4684 24.6048 16.8925 24.6274 16.2602 24.6274C16.1698 24.6274 16.1247 24.5597 16.1247 24.4242C16.1247 24.2887 16.1698 24.2209 16.2602 24.2209C17.4571 24.2209 18.2024 24.0515 18.4959 23.7128C18.7895 23.3514 18.7105 22.6852 18.2588 21.7141L10.7385 5.82661L11.5854 4.77647L5.01355 20.3253C4.44896 21.7028 4.41509 22.6965 4.91192 23.3063C5.40876 23.916 6.39115 24.2209 7.85908 24.2209C7.972 24.2209 8.02846 24.2887 8.02846 24.4242C8.02846 24.5597 7.972 24.6274 7.85908 24.6274C7.18157 24.6274 6.56052 24.6048 5.99593 24.5597C5.43135 24.5145 4.71996 24.4919 3.86179 24.4919C3.04878 24.4919 2.39386 24.5145 1.89702 24.5597C1.42276 24.6048 0.835592 24.6274 0.135501 24.6274C0.0451671 24.6274 0 24.5597 0 24.4242C0 24.2887 0.0451671 24.2209 0.135501 24.2209C0.745257 24.2209 1.27597 24.108 1.72764 23.8822C2.17931 23.6337 2.59711 23.2159 2.98103 22.6288C3.38753 22.019 3.82791 21.1495 4.30217 20.0204L11.4499 3.15045C11.495 3.0827 11.5741 3.04883 11.687 3.04883C11.7999 3.04883 11.8677 3.0827 11.8902 3.15045L19.8848 19.9865C20.4042 21.0931 20.8672 21.9626 21.2737 22.5949C21.6802 23.2047 22.0754 23.6337 22.4594 23.8822C22.8659 24.108 23.3062 24.2209 23.7805 24.2209Z" fill="#EDEBDD"/>
<circle cx="90.9274" cy="16.531" r="2.82294" fill="#810100"/>
<path d="M171.898 24.5592C171.83 24.5592 171.797 24.4915 171.797 24.356C171.797 24.2205 171.83 24.1527 171.898 24.1527C172.779 24.1527 173.343 24.0059 173.592 23.7123C173.863 23.3962 173.998 22.7638 173.998 21.8153V16.3275C173.998 14.9725 173.75 13.9901 173.253 13.3804C172.756 12.748 171.966 12.4319 170.882 12.4319C170.069 12.4319 169.233 12.6916 168.375 13.211C167.517 13.7304 166.783 14.4418 166.173 15.3451L166.038 14.9386C167.031 13.6062 168.014 12.6238 168.985 11.9915C169.979 11.3591 170.984 11.043 172 11.043C173.242 11.043 174.202 11.393 174.879 12.0931C175.579 12.7706 175.929 13.7982 175.929 15.1758V21.8153C175.929 22.7638 176.054 23.3962 176.302 23.7123C176.573 24.0059 177.149 24.1527 178.03 24.1527C178.097 24.1527 178.131 24.2205 178.131 24.356C178.131 24.4915 178.097 24.5592 178.03 24.5592C177.646 24.5592 177.183 24.5479 176.641 24.5254C176.121 24.5028 175.568 24.4915 174.981 24.4915C174.394 24.4915 173.829 24.5028 173.287 24.5254C172.745 24.5479 172.282 24.5592 171.898 24.5592ZM162.786 24.5592C162.718 24.5592 162.684 24.4915 162.684 24.356C162.684 24.2205 162.718 24.1527 162.786 24.1527C163.666 24.1527 164.231 24.0059 164.479 23.7123C164.75 23.3962 164.886 22.7638 164.886 21.8153V15.108C164.886 14.3628 164.796 13.8207 164.615 13.482C164.457 13.1207 164.152 12.94 163.7 12.94C163.474 12.94 163.203 12.9852 162.887 13.0755C162.594 13.1658 162.255 13.29 161.871 13.4481C161.781 13.4707 161.702 13.4255 161.634 13.3126C161.589 13.1997 161.611 13.1207 161.702 13.0755L165.631 11.2123C165.699 11.1898 165.767 11.1785 165.834 11.1785C165.993 11.1785 166.196 11.4156 166.444 11.8899C166.693 12.3641 166.817 13.0529 166.817 13.9562V21.8153C166.817 22.7638 166.941 23.3962 167.189 23.7123C167.46 24.0059 168.036 24.1527 168.917 24.1527C168.985 24.1527 169.019 24.2205 169.019 24.356C169.019 24.4915 168.985 24.5592 168.917 24.5592C168.533 24.5592 168.07 24.5479 167.528 24.5254C167.009 24.5028 166.456 24.4915 165.868 24.4915C165.281 24.4915 164.717 24.5028 164.175 24.5254C163.633 24.5479 163.17 24.5592 162.786 24.5592Z" fill="#EDEBDD"/>
<path d="M153.793 24.5593C153.748 24.5593 153.725 24.4916 153.725 24.3561C153.725 24.2206 153.748 24.1528 153.793 24.1528C154.674 24.1528 155.25 24.006 155.521 23.7124C155.814 23.3963 155.961 22.7639 155.961 21.8154V15.4807C155.961 14.6903 155.882 14.1144 155.724 13.7531C155.566 13.3692 155.272 13.1772 154.843 13.1772C154.663 13.1772 154.448 13.2224 154.2 13.3127C153.951 13.3805 153.658 13.4934 153.319 13.6515C153.229 13.6741 153.15 13.6289 153.082 13.516C153.037 13.3805 153.048 13.2901 153.116 13.245L157.519 11.2124C157.587 11.1899 157.632 11.1786 157.655 11.1786C157.7 11.1786 157.757 11.2124 157.824 11.2802C157.892 11.3254 157.926 11.3818 157.926 11.4496C157.926 11.6302 157.915 12.0706 157.892 12.7707C157.87 13.4708 157.858 14.3629 157.858 15.4469V21.8154C157.858 22.7639 157.982 23.3963 158.231 23.7124C158.502 24.006 159.089 24.1528 159.992 24.1528C160.06 24.1528 160.094 24.2206 160.094 24.3561C160.094 24.4916 160.06 24.5593 159.992 24.5593C159.586 24.5593 159.112 24.548 158.57 24.5255C158.05 24.5029 157.497 24.4916 156.91 24.4916C156.323 24.4916 155.758 24.5029 155.216 24.5255C154.697 24.548 154.222 24.5593 153.793 24.5593ZM156.639 7.21516C156.187 7.21516 155.826 7.09095 155.555 6.84253C155.284 6.59411 155.148 6.24406 155.148 5.79239C155.148 5.34072 155.284 4.99068 155.555 4.74226C155.826 4.49384 156.187 4.36963 156.639 4.36963C157.09 4.36963 157.44 4.49384 157.689 4.74226C157.937 4.99068 158.061 5.34072 158.061 5.79239C158.061 6.7409 157.587 7.21516 156.639 7.21516Z" fill="#EDEBDD"/>
<path d="M143.939 13.55C143.939 14.1372 144.086 14.6341 144.38 15.0406C144.696 15.4471 145.08 15.7971 145.531 16.0907C146.006 16.3617 146.502 16.6327 147.022 16.9037C147.609 17.1973 148.162 17.5135 148.682 17.8522C149.201 18.1684 149.63 18.5636 149.969 19.0379C150.308 19.4895 150.477 20.088 150.477 20.8332C150.477 21.5559 150.297 22.2334 149.935 22.8658C149.574 23.4755 149.032 23.9724 148.309 24.3563C147.609 24.7402 146.74 24.9322 145.701 24.9322C145.136 24.9322 144.594 24.8531 144.075 24.695C143.555 24.5595 143.013 24.2998 142.449 23.9159C142.404 23.8707 142.358 23.8143 142.313 23.7465C142.268 23.6788 142.245 23.5997 142.245 23.5094L142.178 20.8671C142.178 20.7994 142.234 20.7655 142.347 20.7655C142.483 20.7429 142.562 20.7655 142.584 20.8332C142.855 21.6011 143.194 22.2447 143.6 22.7641C144.007 23.261 144.47 23.6449 144.989 23.9159C145.509 24.1643 146.062 24.2885 146.649 24.2885C147.372 24.2885 147.925 24.1079 148.309 23.7465C148.716 23.3852 148.908 22.8545 148.885 22.1544C148.862 21.4995 148.693 20.9687 148.377 20.5622C148.061 20.1557 147.666 19.817 147.191 19.546C146.74 19.2524 146.265 18.9814 145.769 18.733C145.204 18.462 144.662 18.1797 144.143 17.8861C143.646 17.5699 143.228 17.1747 142.889 16.7005C142.573 16.2262 142.415 15.6052 142.415 14.8373C142.415 13.9566 142.641 13.2452 143.092 12.7032C143.544 12.1386 144.12 11.7321 144.82 11.4837C145.52 11.2127 146.254 11.0771 147.022 11.0771C147.451 11.0771 147.869 11.111 148.275 11.1788C148.682 11.2465 149.088 11.382 149.495 11.5853C149.698 11.653 149.8 11.7772 149.8 11.9579C149.8 12.3192 149.788 12.7032 149.766 13.1097C149.743 13.4936 149.732 13.934 149.732 14.4308C149.732 14.476 149.664 14.4986 149.529 14.4986C149.393 14.4986 149.325 14.476 149.325 14.4308C149.325 13.9114 149.145 13.4484 148.783 13.0419C148.422 12.6354 147.97 12.3192 147.428 12.0934C146.886 11.845 146.344 11.7208 145.802 11.7208C145.26 11.7208 144.809 11.8676 144.447 12.1612C144.109 12.4547 143.939 12.9177 143.939 13.55Z" fill="#EDEBDD"/>
<path d="M131.854 25C130.973 25 130.103 24.8532 129.245 24.5596C128.387 24.2886 127.563 23.8144 126.772 23.1369L128.364 20.122C128.364 21.1608 128.624 21.9964 129.144 22.6287C129.663 23.2385 130.273 23.6789 130.973 23.9499C131.696 24.2209 132.339 24.3564 132.904 24.3564C134.214 24.3564 135.23 23.8482 135.953 22.832C136.698 21.8157 137.07 20.3591 137.07 18.4621C137.07 16.3618 136.664 14.7922 135.851 13.7534C135.038 12.692 133.999 12.1612 132.734 12.1612C131.808 12.1612 130.95 12.4548 130.16 13.042C129.369 13.6066 128.635 14.2502 127.958 14.9729L127.687 14.7358C128.161 14.2163 128.692 13.6743 129.279 13.1098C129.866 12.5226 130.532 12.037 131.278 11.6531C132.046 11.2466 132.904 11.0434 133.852 11.0434C134.823 11.0434 135.715 11.2805 136.528 11.7547C137.341 12.2064 138.008 12.8952 138.527 13.8211C139.046 14.7471 139.306 15.9101 139.306 17.3103C139.306 19.0266 138.934 20.4607 138.188 21.6125C137.466 22.7416 136.528 23.5885 135.377 24.1531C134.247 24.7177 133.073 25 131.854 25ZM124.672 24.729C124.582 24.7516 124.514 24.7064 124.469 24.5935C124.424 24.5032 124.435 24.4354 124.503 24.3902C125.158 23.9386 125.643 23.4982 125.959 23.0691C126.298 22.64 126.467 21.9738 126.467 21.0705V4.33604C126.467 3.52304 126.388 2.93586 126.23 2.57452C126.072 2.21319 125.779 2.03252 125.35 2.03252C124.988 2.03252 124.48 2.17931 123.825 2.4729C123.735 2.51807 123.656 2.4729 123.588 2.3374C123.543 2.2019 123.565 2.12285 123.656 2.10027L127.89 0.0338749C127.958 0.0112916 128.014 0 128.06 0C128.127 0 128.195 0.0338748 128.263 0.101625C128.331 0.146793 128.364 0.203252 128.364 0.271003V23.0014L124.672 24.729Z" fill="#EDEBDD"/>
<path d="M106.07 15.2438L106.409 14.5663H115.386L115.623 15.2438H106.07ZM123.177 24.153C123.267 24.153 123.312 24.2208 123.312 24.3563C123.312 24.4918 123.267 24.5595 123.177 24.5595C122.522 24.5595 121.856 24.537 121.178 24.4918C120.501 24.4466 119.846 24.424 119.214 24.424C118.513 24.424 117.904 24.4466 117.384 24.4918C116.865 24.537 116.289 24.5595 115.657 24.5595C115.566 24.5595 115.521 24.4918 115.521 24.3563C115.521 24.2208 115.566 24.153 115.657 24.153C116.854 24.153 117.599 23.9837 117.892 23.6449C118.186 23.2836 118.107 22.6174 117.655 21.6463L110.135 5.75874L110.982 4.7086L104.41 20.2574C103.845 21.635 103.812 22.6287 104.308 23.2384C104.805 23.8482 105.788 24.153 107.256 24.153C107.368 24.153 107.425 24.2208 107.425 24.3563C107.425 24.4918 107.368 24.5595 107.256 24.5595C106.578 24.5595 105.957 24.537 105.392 24.4918C104.828 24.4466 104.116 24.424 103.258 24.424C102.445 24.424 101.79 24.4466 101.294 24.4918C100.819 24.537 100.232 24.5595 99.532 24.5595C99.4417 24.5595 99.3965 24.4918 99.3965 24.3563C99.3965 24.2208 99.4417 24.153 99.532 24.153C100.142 24.153 100.672 24.0401 101.124 23.8143C101.576 23.5659 101.994 23.1481 102.378 22.5609C102.784 21.9511 103.224 21.0817 103.699 19.9525L110.846 3.08258C110.892 3.01483 110.971 2.98096 111.083 2.98096C111.196 2.98096 111.264 3.01483 111.287 3.08258L119.281 19.9186C119.801 21.0252 120.264 21.8947 120.67 22.527C121.077 23.1368 121.472 23.5659 121.856 23.8143C122.262 24.0401 122.703 24.153 123.177 24.153Z" fill="#EDEBDD"/>
</svg>
